<svg width="682" height="342" viewBox="0 0 682 342" fill="none" xmlns="http://www.w3.org/2000/svg">
<path d="M0 0H682V203H0V0Z" fill="#CF0A0A"/>
<path d="M0 203H682V342H0V203Z" fill="black"/>
<path d="M94.1777 100.947L52.5068 47.6279H79.4092L108.184 84.9307L137.097 47.6279H163.583L121.149 100.739L165.039 156H138.067L107.213 117.033L75.665 156H49.1094L94.1777 100.947Z" fill="white"/>
<path d="M175.647 93.1816H239.229V108.574H175.647V93.1816Z" fill="white"/>
<path d="M264.259 47.6279H286.238L325.621 87.1494L365.004 47.6279H386.983V156H365.004V78.0664L325.621 115.993L286.238 78.0664V156H264.259V47.6279Z" fill="white"/>
<path d="M411.39 114.814C411.39 109.268 412.522 103.975 414.787 98.9365C417.052 93.8519 420.311 89.3682 424.563 85.4854C428.816 81.6025 434.016 78.5055 440.164 76.1943C446.358 73.8831 453.384 72.7275 461.242 72.7275C469.054 72.7275 476.08 73.9062 482.32 76.2637C488.607 78.5749 493.923 81.7643 498.268 85.832C502.659 89.8997 506.01 94.6839 508.321 100.185C510.679 105.685 511.857 111.579 511.857 117.865C511.857 118.651 511.834 119.506 511.788 120.431C511.788 121.309 511.742 122.118 511.649 122.857H434.271C435.149 125.307 436.559 127.549 438.5 129.583C440.488 131.617 442.961 133.373 445.919 134.853C448.877 136.332 452.298 137.487 456.181 138.319C460.063 139.105 464.362 139.498 469.077 139.498C473.792 139.498 478.484 139.013 483.152 138.042C487.821 137.025 492.282 135.754 496.534 134.229L503.468 149.898C500.787 151.146 498.06 152.256 495.286 153.227C492.559 154.151 489.693 154.937 486.688 155.584C483.73 156.185 480.61 156.647 477.328 156.971C474.092 157.294 470.672 157.456 467.066 157.456C457.868 157.456 449.802 156.347 442.868 154.128C435.935 151.909 430.133 148.882 425.465 145.045C420.796 141.208 417.283 136.701 414.926 131.524C412.568 126.347 411.39 120.777 411.39 114.814ZM490.086 106.841C489.346 104.576 488.191 102.473 486.619 100.531C485.094 98.5436 483.175 96.8333 480.864 95.4004C478.553 93.9212 475.872 92.7656 472.821 91.9336C469.771 91.1016 466.419 90.6855 462.768 90.6855C458.885 90.6855 455.349 91.1247 452.159 92.0029C448.97 92.8812 446.173 94.0599 443.77 95.5391C441.366 97.0182 439.355 98.7285 437.737 100.67C436.166 102.611 435.01 104.668 434.271 106.841H490.086Z" fill="white"/>
<path d="M533.976 74.1836H554.499V81.1172C559.953 78.0202 565.154 75.8477 570.1 74.5996C575.092 73.3516 579.968 72.7275 584.729 72.7275C590.97 72.7275 596.748 73.652 602.063 75.501C607.379 77.3037 611.979 80.0078 615.861 83.6133C619.744 87.2188 622.772 91.7256 624.944 97.1338C627.163 102.496 628.272 108.713 628.272 115.785V156H607.818V119.113C607.818 114.63 607.171 110.631 605.877 107.118C604.629 103.559 602.803 100.577 600.399 98.1738C598.042 95.724 595.153 93.875 591.732 92.627C588.358 91.3327 584.568 90.6855 580.361 90.6855C578.143 90.6855 575.854 90.9167 573.497 91.3789C571.186 91.8411 568.898 92.5114 566.633 93.3896C564.414 94.2217 562.265 95.2848 560.185 96.5791C558.104 97.8271 556.209 99.2601 554.499 100.878V156H533.976V74.1836Z" fill="white"/>
<path d="M50.875 297V240.984H70.25C75.5885 240.984 80.1458 242.82 83.9219 246.492C87.6979 250.138 89.5859 254.526 89.5859 259.656C89.5859 264.76 87.6979 269.135 83.9219 272.781C80.1458 276.401 75.5885 278.211 70.25 278.211H58.0625V297H50.875ZM58.0625 272.938H70.25C73.6094 272.938 76.474 271.648 78.8438 269.07C81.2135 266.466 82.3984 263.328 82.3984 259.656C82.3984 255.958 81.2135 252.807 78.8438 250.203C76.474 247.599 73.6094 246.297 70.25 246.297H58.0625V272.938Z" fill="white"/>
<path d="M141.266 297V240.984H159.039C164.43 240.984 169 242.677 172.75 246.062C176.5 249.448 178.375 253.706 178.375 258.836C178.375 262.664 177.294 266.049 175.133 268.992C172.997 271.935 170.133 274.044 166.539 275.32L179.195 297H172.008L160.133 276.609H148.453V297H141.266ZM148.453 271.336H159.039C162.451 271.336 165.328 270.164 167.672 267.82C170.016 265.451 171.188 262.456 171.188 258.836C171.188 255.216 170.016 252.221 167.672 249.852C165.328 247.482 162.451 246.297 159.039 246.297H148.453V271.336Z" fill="white"/>
<path d="M229.234 297V240.984H264.938V246.102H236.422V263.875H260.133V268.992H236.422V291.883H264.938V297H229.234Z" fill="white"/>
<path d="M314.469 297V240.984H321.656L338.844 265.711L356.07 240.984H363.258V297H356.07V252.195L341.578 272.352H336.07L321.656 252.273V297H314.469Z" fill="white"/>
<path d="M417.047 297V240.984H424.234V297H417.047Z" fill="white"/>
<path d="M477.984 276.219V240.984H485.172V277.781C485.172 280.125 485.706 282.221 486.773 284.07C487.841 285.919 489.208 287.365 490.875 288.406C492.568 289.448 494.299 290.242 496.07 290.789C497.841 291.31 499.547 291.57 501.188 291.57C502.854 291.57 504.56 291.31 506.305 290.789C508.076 290.242 509.794 289.448 511.461 288.406C513.154 287.365 514.534 285.932 515.602 284.109C516.669 282.26 517.203 280.151 517.203 277.781V240.984H524.391V276.219C524.391 279.682 523.844 282.755 522.75 285.438C521.656 288.12 520.276 290.242 518.609 291.805C516.969 293.341 515.055 294.617 512.867 295.633C510.68 296.648 508.648 297.326 506.773 297.664C504.924 298.029 503.062 298.211 501.188 298.211C499.365 298.211 497.49 298.029 495.562 297.664C493.661 297.326 491.63 296.648 489.469 295.633C487.307 294.617 485.393 293.328 483.727 291.766C482.086 290.177 480.719 288.042 479.625 285.359C478.531 282.677 477.984 279.63 477.984 276.219Z" fill="white"/>
<path d="M576.578 297V240.984H583.766L600.953 265.711L618.18 240.984H625.367V297H618.18V252.195L603.688 272.352H598.18L583.766 252.273V297H576.578Z" fill="white"/>
</svg>
